<mxfile host="65bd71144e">
    <diagram id="A1JjtgstVEOvCGGx2JsE" name="Page-1">
        <mxGraphModel dx="862" dy="669" grid="1" gridSize="10" guides="1" tooltips="1" connect="1" arrows="1" fold="1" page="1" pageScale="1" pageWidth="850" pageHeight="1100" math="0" shadow="0">
            <root>
                <mxCell id="0"/>
                <mxCell id="1" parent="0"/>
                <mxCell id="FjVhsPUr0KgvrovN63E5-11" value="CheckInDateRange" style="endArrow=classic;startArrow=classic;html=1;rounded=0;" parent="1" edge="1">
                    <mxGeometry width="50" height="50" relative="1" as="geometry">
                        <mxPoint x="40" y="40" as="sourcePoint"/>
                        <mxPoint x="360" y="40" as="targetPoint"/>
                    </mxGeometry>
                </mxCell>
                <mxCell id="FjVhsPUr0KgvrovN63E5-21" value="1" style="whiteSpace=wrap;html=1;aspect=fixed;fillColor=#7EA6E0;" parent="1" vertex="1">
                    <mxGeometry x="40" y="80" width="80" height="80" as="geometry"/>
                </mxCell>
                <mxCell id="FjVhsPUr0KgvrovN63E5-22" value="2" style="whiteSpace=wrap;html=1;aspect=fixed;fillColor=#7EA6E0;" parent="1" vertex="1">
                    <mxGeometry x="120" y="80" width="80" height="80" as="geometry"/>
                </mxCell>
                <mxCell id="FjVhsPUr0KgvrovN63E5-23" value="3" style="whiteSpace=wrap;html=1;aspect=fixed;fillColor=#7EA6E0;" parent="1" vertex="1">
                    <mxGeometry x="200" y="80" width="80" height="80" as="geometry"/>
                </mxCell>
                <mxCell id="FjVhsPUr0KgvrovN63E5-24" value="4" style="whiteSpace=wrap;html=1;aspect=fixed;fillColor=#7EA6E0;" parent="1" vertex="1">
                    <mxGeometry x="280" y="80" width="80" height="80" as="geometry"/>
                </mxCell>
                <mxCell id="FjVhsPUr0KgvrovN63E5-25" value="5" style="whiteSpace=wrap;html=1;aspect=fixed;" parent="1" vertex="1">
                    <mxGeometry x="360" y="80" width="80" height="80" as="geometry"/>
                </mxCell>
                <mxCell id="FjVhsPUr0KgvrovN63E5-26" value="6" style="whiteSpace=wrap;html=1;aspect=fixed;" parent="1" vertex="1">
                    <mxGeometry x="440" y="80" width="80" height="80" as="geometry"/>
                </mxCell>
                <mxCell id="FjVhsPUr0KgvrovN63E5-27" value="7" style="whiteSpace=wrap;html=1;aspect=fixed;" parent="1" vertex="1">
                    <mxGeometry x="520" y="80" width="80" height="80" as="geometry"/>
                </mxCell>
            </root>
        </mxGraphModel>
    </diagram>
</mxfile>